<svg width="16.481293" height="16.481293" viewBox="0 0 16.4813 16.4813" fill="none" xmlns="http://www.w3.org/2000/svg" xmlns:xlink="http://www.w3.org/1999/xlink">
	<defs/>
	<path id="Vector" d="M4.48 0L15.73 0C15.93 0 16.12 0.07 16.26 0.21C16.4 0.36 16.48 0.55 16.48 0.75L16.48 12C16.48 12.19 16.4 12.38 16.26 12.53C16.12 12.67 15.93 12.75 15.73 12.75C15.53 12.75 15.34 12.67 15.2 12.53C15.06 12.38 14.98 12.19 14.98 12L14.98 2.56L1.26 16.28C1.11 16.41 0.93 16.48 0.73 16.48C0.54 16.47 0.35 16.39 0.21 16.26C0.08 16.12 0 15.93 0 15.74C-0.01 15.55 0.06 15.36 0.2 15.22L13.92 1.5L4.48 1.5C4.28 1.5 4.09 1.42 3.95 1.28C3.81 1.13 3.73 0.94 3.73 0.75C3.73 0.55 3.81 0.36 3.95 0.21C4.09 0.07 4.28 0 4.48 0Z" fill="#079211" fill-opacity="1.000000" fill-rule="evenodd"/>
</svg>
