<svg width="24" height="24" viewBox="0 0 24 24" fill="none" xmlns="http://www.w3.org/2000/svg" xmlns:xlink="http://www.w3.org/1999/xlink">
	<defs>
		<clipPath id="clip1_214">
			<rect id="Frame" rx="-0.500000" width="23.000000" height="23.000000" transform="translate(0.500000 0.500000)" fill="white" fill-opacity="0"/>
		</clipPath>
	</defs>
	<rect id="Frame" rx="-0.500000" width="23.000000" height="23.000000" transform="translate(0.500000 0.500000)" fill="#FFFFFF" fill-opacity="0"/>
	<g clip-path="url(#clip1_214)">
		<path id="Vector" d="M12 2.25C12.19 2.25 12.38 2.32 12.53 2.46C12.67 2.61 12.75 2.8 12.75 3L12.75 14.68L15.97 11.47C16.03 11.39 16.12 11.33 16.21 11.29C16.3 11.25 16.4 11.23 16.5 11.23C16.6 11.22 16.7 11.24 16.79 11.28C16.89 11.32 16.97 11.37 17.04 11.45C17.12 11.52 17.17 11.6 17.21 11.7C17.25 11.79 17.27 11.89 17.26 11.99C17.26 12.09 17.24 12.19 17.2 12.28C17.16 12.37 17.1 12.46 17.03 12.53L12.53 17.03C12.38 17.17 12.19 17.24 12 17.24C11.8 17.24 11.61 17.17 11.47 17.03L6.97 12.53C6.89 12.46 6.83 12.37 6.79 12.28C6.75 12.19 6.73 12.09 6.73 11.99C6.72 11.89 6.74 11.79 6.78 11.7C6.82 11.6 6.87 11.52 6.95 11.45C7.02 11.37 7.1 11.32 7.2 11.28C7.29 11.24 7.39 11.22 7.49 11.23C7.59 11.23 7.69 11.25 7.78 11.29C7.87 11.33 7.96 11.39 8.03 11.47L11.25 14.68L11.25 3C11.25 2.8 11.32 2.61 11.46 2.46C11.61 2.32 11.8 2.25 12 2.25ZM3 15.75C3.19 15.75 3.38 15.82 3.53 15.96C3.67 16.11 3.75 16.3 3.75 16.5L3.75 18.75C3.75 19.14 3.9 19.52 4.18 19.81C4.47 20.09 4.85 20.25 5.25 20.25L18.75 20.25C19.14 20.25 19.52 20.09 19.81 19.81C20.09 19.52 20.25 19.14 20.25 18.75L20.25 16.5C20.25 16.3 20.32 16.11 20.46 15.96C20.61 15.82 20.8 15.75 21 15.75C21.19 15.75 21.38 15.82 21.53 15.96C21.67 16.11 21.75 16.3 21.75 16.5L21.75 18.75C21.75 19.54 21.43 20.3 20.87 20.87C20.3 21.43 19.54 21.75 18.75 21.75L5.25 21.75C4.45 21.75 3.69 21.43 3.12 20.87C2.56 20.3 2.25 19.54 2.25 18.75L2.25 16.5C2.25 16.3 2.32 16.11 2.46 15.96C2.61 15.82 2.8 15.75 3 15.75Z" fill="#808080" fill-opacity="1.000000" fill-rule="evenodd"/>
	</g>
</svg>
