<svg width="50.000000" height="47.000000" viewBox="0 0 50 47" fill="none" xmlns="http://www.w3.org/2000/svg" xmlns:xlink="http://www.w3.org/1999/xlink">
	<defs>
		<clipPath id="clip1_177">
			<rect rx="0.000000" width="41.000000" height="32.599998" transform="translate(0.500000 0.500000)" fill="white" fill-opacity="0"/>
		</clipPath>
	</defs>
	<circle cx="35.000000" cy="32.000000" r="15.000000" fill="#079211" fill-opacity="1.000000"/>
	<rect rx="0.000000" width="41.000000" height="32.599998" transform="translate(0.500000 0.500000)" fill="#FFFFFF" fill-opacity="0"/>
	<g clip-path="url(#clip1_177)">
		<path d="M3.16 4.38C3.15 4.33 3.15 4.27 3.15 4.21C3.15 4.21 3.15 4.21 3.15 4.2C3.15 3.62 3.62 3.15 4.2 3.15C4.25 3.15 4.32 3.16 4.38 3.16C4.87 3.24 5.25 3.68 5.25 4.19C5.25 4.77 4.77 5.25 4.2 5.25C3.68 5.25 3.24 4.87 3.16 4.38ZM0 4.19C0 5.96 1.08 7.47 2.62 8.09L2.62 15C1.08 15.62 0 17.13 0 18.9C0 21.21 1.88 23.1 4.2 23.1C5.96 23.1 7.47 22.01 8.09 20.47L21.3 20.47C21.93 22.01 23.44 23.1 25.2 23.1C27.51 23.1 29.4 21.21 29.4 18.9C29.4 17.13 28.31 15.62 26.77 15L26.77 8.09C28.31 7.46 29.4 5.95 29.4 4.19C29.4 1.88 27.51 0 25.2 0C23.43 0 21.92 1.08 21.3 2.62L8.09 2.62C7.47 1.08 5.96 0 4.2 0C1.88 0 0 1.88 0 4.19ZM24.15 4.19C24.15 3.92 24.26 3.65 24.45 3.45C24.65 3.26 24.92 3.15 25.2 3.15C25.47 3.15 25.74 3.26 25.94 3.45C26.13 3.65 26.25 3.92 26.25 4.19C26.25 4.47 26.13 4.74 25.94 4.94C25.74 5.13 25.47 5.25 25.2 5.25C24.92 5.25 24.65 5.13 24.45 4.94C24.26 4.74 24.15 4.47 24.15 4.19ZM21.3 5.77C21.73 6.82 22.57 7.67 23.62 8.09L23.62 15C22.57 15.43 21.72 16.27 21.3 17.32L8.09 17.32C7.66 16.27 6.82 15.42 5.77 15L5.77 8.09C6.82 7.66 7.67 6.82 8.09 5.77L21.3 5.77ZM25.2 17.85C25.47 17.85 25.74 17.96 25.94 18.15C26.13 18.35 26.25 18.62 26.25 18.9C26.25 19.17 26.13 19.44 25.94 19.64C25.74 19.83 25.47 19.95 25.2 19.95C24.92 19.95 24.65 19.83 24.45 19.64C24.26 19.44 24.15 19.17 24.15 18.9C24.15 18.62 24.26 18.35 24.45 18.15C24.65 17.96 24.92 17.85 25.2 17.85ZM5.25 18.9C5.25 19.41 4.87 19.85 4.38 19.93C4.33 19.94 4.27 19.95 4.21 19.95L4.2 19.95C3.62 19.95 3.15 19.47 3.15 18.9C3.15 18.84 3.16 18.77 3.16 18.71C3.24 18.22 3.68 17.85 4.2 17.85C4.77 17.85 5.25 18.32 5.25 18.9ZM30.92 16.27L33.9 16.27C34.33 17.32 35.17 18.17 36.22 18.59L36.22 25.5C35.17 25.93 34.32 26.77 33.9 27.82L20.69 27.82C20.26 26.77 19.42 25.92 18.37 25.5L18.37 23.1L15.22 23.1L15.22 25.5C13.68 26.13 12.6 27.64 12.6 29.4C12.6 31.71 14.48 33.59 16.79 33.59C18.56 33.59 20.07 32.51 20.69 30.97L33.9 30.97C34.53 32.51 36.04 33.59 37.8 33.59C40.11 33.59 42 31.71 42 29.4C42 27.63 40.91 26.12 39.37 25.5L39.37 18.59C40.91 17.96 42 16.45 42 14.7C42 12.38 40.11 10.5 37.8 10.5C36.03 10.5 34.52 11.58 33.9 13.12L29.4 13.12L29.4 14.2C30.04 14.77 30.56 15.48 30.92 16.27ZM36.76 14.52C36.78 14.38 36.82 14.24 36.9 14.12C36.97 14 37.06 13.89 37.18 13.81C37.29 13.73 37.42 13.67 37.56 13.64C37.7 13.6 37.84 13.6 37.98 13.62C38.12 13.65 38.25 13.7 38.37 13.78C38.49 13.85 38.59 13.95 38.67 14.07C38.75 14.19 38.8 14.32 38.83 14.46C38.86 14.6 38.85 14.74 38.83 14.88C38.81 15.02 38.76 15.15 38.69 15.27C38.61 15.4 38.52 15.5 38.4 15.59C38.29 15.67 38.16 15.73 38.02 15.76C37.89 15.79 37.74 15.8 37.6 15.77C37.47 15.75 37.33 15.7 37.21 15.62C37.1 15.54 36.99 15.44 36.91 15.33C36.84 15.21 36.78 15.08 36.75 14.94C36.73 14.8 36.73 14.66 36.76 14.52ZM17.83 29.57C17.81 29.71 17.77 29.85 17.69 29.97C17.62 30.09 17.53 30.2 17.41 30.28C17.3 30.36 17.17 30.42 17.03 30.45C16.89 30.49 16.75 30.49 16.61 30.47C16.47 30.44 16.34 30.39 16.22 30.31C16.1 30.24 16 30.14 15.92 30.02C15.84 29.9 15.79 29.77 15.76 29.63C15.73 29.49 15.74 29.35 15.76 29.21C15.78 29.07 15.83 28.94 15.9 28.82C15.98 28.69 16.07 28.59 16.19 28.5C16.3 28.42 16.43 28.36 16.57 28.33C16.7 28.3 16.85 28.29 16.99 28.32C17.12 28.34 17.26 28.39 17.38 28.47C17.49 28.55 17.6 28.65 17.68 28.77C17.75 28.88 17.81 29.01 17.84 29.15C17.86 29.29 17.86 29.43 17.83 29.57ZM37.62 30.43C37.13 30.34 36.75 29.91 36.75 29.39C36.75 28.81 37.22 28.34 37.8 28.34C38.32 28.34 38.75 28.71 38.84 29.2L38.84 29.21C38.84 29.27 38.85 29.33 38.85 29.39C38.85 29.97 38.38 30.44 37.8 30.44C37.74 30.44 37.68 30.43 37.62 30.43Z" fill="#FFFFFF" fill-opacity="1.000000" fill-rule="nonzero"/>
	</g>
</svg>
