<svg width="50.000000" height="47.000000" viewBox="0 0 50 47" fill="none" xmlns="http://www.w3.org/2000/svg" xmlns:xlink="http://www.w3.org/1999/xlink">
	<defs>
		<clipPath id="clip1_187">
			<rect rx="0.000000" width="40.250000" height="32.000000" transform="translate(0.500000 0.500000)" fill="white" fill-opacity="0"/>
		</clipPath>
	</defs>
	<circle cx="35.000000" cy="32.000000" r="15.000000" fill="#079211" fill-opacity="1.000000"/>
	<rect rx="0.000000" width="40.250000" height="32.000000" transform="translate(0.500000 0.500000)" fill="#FFFFFF" fill-opacity="0"/>
	<g clip-path="url(#clip1_187)">
		<path d="M25.31 0.07C24.22 -0.24 23.08 0.39 22.76 1.49L14.51 30.37C14.19 31.46 14.83 32.6 15.93 32.92C17.02 33.23 18.16 32.6 18.48 31.5L26.73 2.62C27.05 1.53 26.41 0.39 25.31 0.07ZM30.51 7.81C29.7 8.62 29.7 9.93 30.51 10.73L36.26 16.5L30.5 22.26C29.7 23.06 29.7 24.37 30.5 25.18C31.31 25.98 32.61 25.98 33.42 25.18L40.64 17.96C41.44 17.15 41.44 15.84 40.64 15.04L33.42 7.82C32.61 7.01 31.31 7.01 30.5 7.82L30.51 7.81ZM10.74 7.81C9.93 7.01 8.63 7.01 7.82 7.81L0.6 15.03C-0.2 15.84 -0.2 17.15 0.6 17.95L7.82 25.17C8.63 25.98 9.93 25.98 10.74 25.17C11.55 24.36 11.55 23.06 10.74 22.25L4.98 16.5L10.74 10.73C11.55 9.93 11.55 8.62 10.74 7.81Z" fill="#FFFFFF" fill-opacity="1.000000" fill-rule="nonzero"/>
	</g>
</svg>
