<svg width="50.000000" height="47.000000" viewBox="0 0 50 47" fill="none" xmlns="http://www.w3.org/2000/svg" xmlns:xlink="http://www.w3.org/1999/xlink">
	<defs>
		<clipPath id="clip1_197">
			<rect rx="0.000000" width="32.000000" height="32.000000" transform="translate(0.500000 0.500000)" fill="white" fill-opacity="0"/>
		</clipPath>
	</defs>
	<circle cx="35.000000" cy="32.000000" r="15.000000" fill="#079211" fill-opacity="1.000000"/>
	<rect rx="0.000000" width="32.000000" height="32.000000" transform="translate(0.500000 0.500000)" fill="#FFFFFF" fill-opacity="0"/>
	<g clip-path="url(#clip1_197)">
		<path d="M16.5 3.09C20.05 3.09 23.46 4.5 25.97 7.02C28.49 9.53 29.9 12.94 29.9 16.5C29.9 20.05 28.49 23.46 25.97 25.97C23.46 28.49 20.05 29.9 16.5 29.9C12.94 29.9 9.53 28.49 7.02 25.97C4.5 23.46 3.09 20.05 3.09 16.5C3.09 12.94 4.5 9.53 7.02 7.02C9.53 4.5 12.94 3.09 16.5 3.09ZM16.5 33C20.87 33 25.07 31.26 28.16 28.16C31.26 25.07 33 20.87 33 16.5C33 12.12 31.26 7.92 28.16 4.83C25.07 1.73 20.87 0 16.5 0C12.12 0 7.92 1.73 4.83 4.83C1.73 7.92 0 12.12 0 16.5C0 20.87 1.73 25.07 4.83 28.16C7.92 31.26 12.12 33 16.5 33ZM12.85 20.14C10.84 18.13 10.84 14.86 12.85 12.85C14.86 10.84 18.13 10.84 20.14 12.85C20.74 13.46 21.72 13.46 22.32 12.85C22.92 12.25 22.93 11.27 22.32 10.67C19.1 7.45 13.88 7.45 10.66 10.67C7.43 13.89 7.43 19.11 10.66 22.33C13.88 25.56 19.1 25.56 22.32 22.33C22.93 21.73 22.93 20.75 22.32 20.15C21.72 19.55 20.74 19.54 20.14 20.15C18.13 22.16 14.86 22.16 12.85 20.15L12.85 20.14Z" fill="#FFFFFF" fill-opacity="1.000000" fill-rule="nonzero"/>
	</g>
</svg>
